<mxfile host="app.diagrams.net" modified="2022-07-02T05:16:49.396Z" agent="5.0 (Windows NT 10.0; Win64; x64) AppleWebKit/537.36 (KHTML, like Gecko) Chrome/103.0.0.0 Safari/537.36" etag="--U265e7O68KpwlYR4_a" version="20.0.3" type="github">
  <diagram id="C5RBs43oDa-KdzZeNtuy" name="Page-1">
    <mxGraphModel dx="1929" dy="582" grid="1" gridSize="10" guides="1" tooltips="1" connect="1" arrows="1" fold="1" page="1" pageScale="1" pageWidth="827" pageHeight="1169" math="0" shadow="0">
      <root>
        <mxCell id="WIyWlLk6GJQsqaUBKTNV-0" />
        <mxCell id="WIyWlLk6GJQsqaUBKTNV-1" parent="WIyWlLk6GJQsqaUBKTNV-0" />
        <mxCell id="v_t5tOtFAbqY9xEJmeQ0-1" value="" style="edgeStyle=orthogonalEdgeStyle;rounded=0;orthogonalLoop=1;jettySize=auto;html=1;" edge="1" parent="WIyWlLk6GJQsqaUBKTNV-1" source="WIyWlLk6GJQsqaUBKTNV-3" target="v_t5tOtFAbqY9xEJmeQ0-0">
          <mxGeometry relative="1" as="geometry" />
        </mxCell>
        <mxCell id="WIyWlLk6GJQsqaUBKTNV-3" value="higher_lower" style="rounded=1;whiteSpace=wrap;html=1;fontSize=12;glass=0;strokeWidth=1;shadow=0;" parent="WIyWlLk6GJQsqaUBKTNV-1" vertex="1">
          <mxGeometry x="160" y="80" width="120" height="40" as="geometry" />
        </mxCell>
        <mxCell id="v_t5tOtFAbqY9xEJmeQ0-5" value="" style="edgeStyle=orthogonalEdgeStyle;rounded=0;orthogonalLoop=1;jettySize=auto;html=1;" edge="1" parent="WIyWlLk6GJQsqaUBKTNV-1" source="v_t5tOtFAbqY9xEJmeQ0-0" target="v_t5tOtFAbqY9xEJmeQ0-4">
          <mxGeometry relative="1" as="geometry" />
        </mxCell>
        <mxCell id="v_t5tOtFAbqY9xEJmeQ0-0" value="select two random&lt;br&gt;dict" style="whiteSpace=wrap;html=1;rounded=1;glass=0;strokeWidth=1;shadow=0;" vertex="1" parent="WIyWlLk6GJQsqaUBKTNV-1">
          <mxGeometry x="160" y="190" width="120" height="60" as="geometry" />
        </mxCell>
        <mxCell id="v_t5tOtFAbqY9xEJmeQ0-7" value="" style="edgeStyle=orthogonalEdgeStyle;rounded=0;orthogonalLoop=1;jettySize=auto;html=1;" edge="1" parent="WIyWlLk6GJQsqaUBKTNV-1" source="v_t5tOtFAbqY9xEJmeQ0-4" target="v_t5tOtFAbqY9xEJmeQ0-6">
          <mxGeometry relative="1" as="geometry" />
        </mxCell>
        <mxCell id="v_t5tOtFAbqY9xEJmeQ0-11" value="" style="edgeStyle=orthogonalEdgeStyle;rounded=0;orthogonalLoop=1;jettySize=auto;html=1;" edge="1" parent="WIyWlLk6GJQsqaUBKTNV-1" source="v_t5tOtFAbqY9xEJmeQ0-4" target="v_t5tOtFAbqY9xEJmeQ0-10">
          <mxGeometry relative="1" as="geometry" />
        </mxCell>
        <mxCell id="v_t5tOtFAbqY9xEJmeQ0-4" value="people ask qustion" style="rhombus;whiteSpace=wrap;html=1;rounded=1;glass=0;strokeWidth=1;shadow=0;" vertex="1" parent="WIyWlLk6GJQsqaUBKTNV-1">
          <mxGeometry x="150" y="320" width="140" height="80" as="geometry" />
        </mxCell>
        <mxCell id="v_t5tOtFAbqY9xEJmeQ0-6" value="lose" style="whiteSpace=wrap;html=1;rounded=1;glass=0;strokeWidth=1;shadow=0;fillColor=#f8cecc;strokeColor=#b85450;" vertex="1" parent="WIyWlLk6GJQsqaUBKTNV-1">
          <mxGeometry x="-30" y="330" width="120" height="60" as="geometry" />
        </mxCell>
        <mxCell id="v_t5tOtFAbqY9xEJmeQ0-13" value="" style="edgeStyle=orthogonalEdgeStyle;rounded=0;orthogonalLoop=1;jettySize=auto;html=1;" edge="1" parent="WIyWlLk6GJQsqaUBKTNV-1" source="v_t5tOtFAbqY9xEJmeQ0-10" target="v_t5tOtFAbqY9xEJmeQ0-12">
          <mxGeometry relative="1" as="geometry" />
        </mxCell>
        <mxCell id="v_t5tOtFAbqY9xEJmeQ0-10" value="coorect answer" style="whiteSpace=wrap;html=1;rounded=1;glass=0;strokeWidth=1;shadow=0;" vertex="1" parent="WIyWlLk6GJQsqaUBKTNV-1">
          <mxGeometry x="160" y="490" width="120" height="60" as="geometry" />
        </mxCell>
        <mxCell id="v_t5tOtFAbqY9xEJmeQ0-14" style="edgeStyle=orthogonalEdgeStyle;rounded=0;orthogonalLoop=1;jettySize=auto;html=1;" edge="1" parent="WIyWlLk6GJQsqaUBKTNV-1" source="v_t5tOtFAbqY9xEJmeQ0-12" target="v_t5tOtFAbqY9xEJmeQ0-4">
          <mxGeometry relative="1" as="geometry">
            <mxPoint x="510" y="340" as="targetPoint" />
            <Array as="points">
              <mxPoint x="520" y="660" />
              <mxPoint x="520" y="340" />
            </Array>
          </mxGeometry>
        </mxCell>
        <mxCell id="v_t5tOtFAbqY9xEJmeQ0-12" value="pick random dict" style="whiteSpace=wrap;html=1;rounded=1;glass=0;strokeWidth=1;shadow=0;" vertex="1" parent="WIyWlLk6GJQsqaUBKTNV-1">
          <mxGeometry x="160" y="630" width="120" height="60" as="geometry" />
        </mxCell>
      </root>
    </mxGraphModel>
  </diagram>
</mxfile>
